# xmcd
#
# Track frame offsets:
#	150
#	21427
#	40096
#	61913
#	85850
#	109182
#	124604
#	137851
#	154703
#	175908
#
# Disc length: 2850 seconds
#
# Revision: 1
# Processed by: cddbd v1.5PL3 Copyright (c) Steve Scherf et al.
# Submitted via: CDex 1.50Beta5
#
DISCID=7f0b200a
DTITLE=The Gospellers - FIVE KEYS
DYEAR=1999
DGENRE=R&B
TTITLE0=FIVE KEYS
TTITLE1=熱帯夜
TTITLE2=逃飛行
TTITLE3=LOSER
TTITLE4=I LOVE YOU,BABY
TTITLE5=夜をぶっとばせ(Live)
TTITLE6=讃歌(Live)
TTITLE7=まちがいさがし
TTITLE8=THAT'S WHAT I WANT
TTITLE9=あたらしい世界
EXTD=
EXTT0=
EXTT1=
EXTT2=
EXTT3=
EXTT4=
EXTT5=
EXTT6=
EXTT7=
EXTT8=
EXTT9=
PLAYORDER=
